<svg width="67" height="60" viewBox="0 0 67 60" fill="none" xmlns="http://www.w3.org/2000/svg">
<path d="M36.7382 18.8207C36.6844 18.2446 36.1723 17.821 35.5944 17.8746C35.0164 17.9282 34.5914 18.4387 34.6452 19.0148L36.6729 40.7359C36.7267 41.3119 37.2388 41.7355 37.8168 41.6819C38.3947 41.6283 38.8197 41.1178 38.7659 40.5417L36.7382 18.8207Z" fill="#2A5ADA"/>
<path d="M41.145 57.1701C46.1635 55.6072 48.9607 50.2851 47.3927 45.2828C45.8247 40.2806 40.4853 37.4925 35.4667 39.0554C30.4482 40.6183 27.651 45.9404 29.219 50.9427C30.787 55.9449 36.1265 58.733 41.145 57.1701Z" fill="url(#paint0_linear_1736_1273)"/>
<path d="M39.4104 18.1526L37.1673 20.6604L23.3931 36.0603C22.7201 36.8127 21.8382 37.1162 21.4157 36.7407C20.9932 36.3652 21.2048 35.466 21.8678 34.7048C21.8678 34.7048 32.6714 22.304 35.1483 19.461C37.6251 16.618 36.7288 17.6468 36.7288 17.6468C41.6699 11.9751 42.5663 14.2117 39.4104 18.1526Z" fill="#2A5ADA"/>
<path d="M10.5118 54.964C16.3176 57.7098 23.2573 55.2445 26.0121 49.4576C28.7669 43.6707 26.2936 36.7535 20.4878 34.0077C14.6821 31.2618 7.74238 33.7271 4.98759 39.514C2.23279 45.3009 4.70609 52.2181 10.5118 54.964Z" fill="url(#paint1_linear_1736_1273)"/>
<path d="M36.4034 18.9975C35.9812 18.6004 35.316 18.6196 34.9176 19.0404C34.5192 19.4612 34.5385 20.1242 34.9607 20.5213L50.8784 35.4933C51.3005 35.8904 51.9657 35.8711 52.3641 35.4503C52.7625 35.0295 52.7432 34.3665 52.321 33.9694L36.4034 18.9975Z" fill="#2A5ADA"/>
<path d="M61.3871 42.4248C63.5118 38.9421 62.4018 34.4019 58.9077 32.2841C55.4137 30.1662 50.8587 31.2726 48.7339 34.7553C46.6092 38.238 47.7192 42.7782 51.2133 44.8961C54.7073 47.0139 59.2623 45.9075 61.3871 42.4248Z" fill="url(#paint2_linear_1736_1273)"/>
<path d="M38.1921 16.6009C37.6338 16.445 37.0592 16.7115 36.9085 17.1963C36.7579 17.6811 37.0883 18.2004 37.6465 18.3564L58.6948 24.2357C59.253 24.3916 59.8277 24.125 59.9783 23.6403C60.129 23.1555 59.7985 22.6361 59.2403 22.4802L38.1921 16.6009Z" fill="#2A5ADA"/>
<path d="M66.2425 24.0093C66.2018 21.0981 63.8011 18.7709 60.8804 18.8114C57.9597 18.852 55.625 21.2448 55.6656 24.1561C55.7063 27.0673 58.107 29.3945 61.0277 29.3539C63.9484 29.3134 66.2831 26.9205 66.2425 24.0093Z" fill="url(#paint3_linear_1736_1273)"/>
<path d="M36.6868 34.7377C45.8828 33.8848 52.6439 25.7628 51.7883 16.5967C50.9326 7.43062 42.7842 0.691423 33.5882 1.5443C24.3923 2.39717 17.6311 10.5192 18.4868 19.6853C19.3424 28.8513 27.4909 35.5905 36.6868 34.7377Z" fill="url(#paint4_linear_1736_1273)"/>
<defs>
<linearGradient id="paint0_linear_1736_1273" x1="38.6784" y1="55.7668" x2="37.9627" y2="38.5341" gradientUnits="userSpaceOnUse">
<stop stop-color="#8347E6"/>
<stop offset="0.685751" stop-color="#5650E0"/>
<stop offset="0.9014" stop-color="#4055DD"/>
<stop offset="1" stop-color="#2A5ADA"/>
</linearGradient>
<linearGradient id="paint1_linear_1736_1273" x1="8.78275" y1="52.3562" x2="22.0577" y2="36.1584" gradientUnits="userSpaceOnUse">
<stop offset="0.391857" stop-color="#E84142"/>
<stop offset="0.709287" stop-color="#B84768"/>
<stop offset="0.820611" stop-color="#894D8E"/>
<stop offset="0.967557" stop-color="#5953B4"/>
<stop offset="1" stop-color="#2A5ADA"/>
</linearGradient>
<linearGradient id="paint2_linear_1736_1273" x1="58.6683" y1="42.3039" x2="49.5118" y2="33.658" gradientUnits="userSpaceOnUse">
<stop stop-color="#F4BB0B"/>
<stop offset="0.591603" stop-color="#8F8A72"/>
<stop offset="0.869593" stop-color="#5C72A6"/>
<stop offset="1" stop-color="#2A5ADA"/>
</linearGradient>
<linearGradient id="paint3_linear_1736_1273" x1="65.1517" y1="25.0714" x2="55.7893" y2="23.2651" gradientUnits="userSpaceOnUse">
<stop stop-color="#333333"/>
<stop offset="0.774809" stop-color="#2E4686"/>
<stop offset="0.925573" stop-color="#2C50B0"/>
<stop offset="1" stop-color="#2A5ADA"/>
</linearGradient>
<linearGradient id="paint4_linear_1736_1273" x1="35.5428" y1="20.8726" x2="40.3867" y2="33.6939" gradientUnits="userSpaceOnUse">
<stop stop-color="#8C8C8C"/>
<stop offset="0.632731" stop-color="#5B73B3"/>
<stop offset="1" stop-color="#2A5ADA"/>
</linearGradient>
</defs>
</svg>
